#!OML:ASF F:\VICON\USERDATA\INSTALL\rory3\rory3.ASF
:FULLY-SPECIFIED
:DEGREES
85
root -2.13624 16.4161 -24.6523 1.50233 4.6989 -0.0773246
lowerback 13.4055 0.828358 -5.06721
upperback -4.57908 0.392816 1.81646
thorax -12.6976 0.689028 4.79194
lowerneck -8.22906 -7.11345 -4.71283
upperneck 17.5126 -9.86833 4.39778
head 7.16932 -4.68863 1.31318
rclavicle -8.94531e-015 -7.95139e-016
rhumerus -34.0406 -0.631749 -84.2977
rradius 29.976
rwrist 6.38713
rhand -9.07109 17.3444
rfingers 7.12502
rthumb 16.878 -11.9422
lclavicle -8.94531e-015 -7.95139e-016
lhumerus -39.9791 7.47856 84.0857
lradius 23.0952
lwrist -0.828415
lhand -4.98243 18.8014
lfingers 7.12502
lthumb 20.8103 47.7054
rfemur -2.73051 17.1235 27.4887
rtibia 23.5173
rfoot -20.3534 -12.5848
rtoes 31.0486
lfemur -34.9513 -6.37758 -18.2298
ltibia 48.8007
lfoot -7.14661 3.70079
ltoes 7.9734
86
root -2.12031 16.4234 -24.5545 1.64452 4.63249 -0.0911992
lowerback 13.0223 0.806188 -4.84266
upperback -4.61134 0.412702 1.73376
thorax -12.4986 0.670134 4.56273
lowerneck -7.78902 -7.14301 -4.649
upperneck 17.4134 -9.91448 4.31615
head 7.05435 -4.72333 1.29094
rclavicle 2.02139e-014 -6.36111e-015
rhumerus -34.1041 -0.070943 -84.6562
rradius 30.0758
rwrist 6.33585
rhand -9.50495 17.7415
rfingers 7.12502
rthumb 16.4603 -11.5802
lclavicle 2.02139e-014 -6.36111e-015
lhumerus -40.1051 7.71282 83.8955
lradius 22.8155
lwrist -1.0815
lhand -4.67028 19.7065
lfingers 7.12502
lthumb 21.1102 48.5774
rfemur -1.89156 17.0618 27.5103
rtibia 22.4176
rfoot -20.0528 -12.7236
rtoes 30.5149
lfemur -34.859 -7.43383 -17.9228
ltibia 46.4563
lfoot -7.29114 4.24119
ltoes 7.96084
87
root -2.11128 16.4419 -24.4578 2.01643 4.0869 -0.274217
lowerback 12.5638 0.997877 -4.7164
upperback -4.61182 0.717277 1.7507
thorax -12.2556 0.797514 4.43466
lowerneck -8.22892 -7.20107 -4.64916
upperneck 17.6404 -10.0018 4.37834
head 7.21304 -4.74833 1.28198
rclavicle -2.98177e-016 -3.18055e-015
rhumerus -34.0769 0.425323 -84.8999
rradius 30.4583
rwrist 5.83796
rhand -9.65324 17.7386
rfingers 7.12502
rthumb 16.3175 -11.5949
lclavicle -2.98177e-016 -3.18055e-015
lhumerus -39.9899 7.88602 83.7871
lradius 22.373
lwrist -1.34607
lhand -4.86919 19.1434
lfingers 7.12502
lthumb 20.9191 48.0354
rfemur -1.32681 17.2218 27.5926
rtibia 21.2378
rfoot -19.5145 -12.5289
rtoes 30.194
lfemur -35.019 -8.00817 -17.3198
ltibia 44.1737
lfoot -7.32552 4.80201
ltoes 5.77264
88
root -2.11063 16.4408 -24.35 1.76308 5.0449 -0.238123
lowerback 13.2318 0.770191 -4.84874
upperback -4.65739 0.364821 1.83659
thorax -12.6748 0.660293 4.69532
lowerneck -8.71005 -7.27476 -4.74531
upperneck 17.9115 -10.0762 4.32936
head 7.39267 -4.78124 1.25135
rclavicle 1.41758e-014 2.18663e-015
rhumerus -34.0733 0.770083 -84.9022
rradius 30.6723
rwrist 5.3942
rhand -9.05065 17.2497
rfingers 7.12502
rthumb 16.8977 -12.0351
lclavicle 1.41758e-014 2.18663e-015
lhumerus -40.2723 8.15904 83.7451
lradius 21.9206
lwrist -1.39411
lhand -5.5143 17.3638
lfingers 7.12502
lthumb 20.2992 46.323
rfemur 0.241062 16.995 27.9914
rtibia 20.0187
rfoot -19.8844 -13.1671
rtoes 30.6181
lfemur -34.7031 -9.68776 -16.985
ltibia 41.9323
lfoot -7.1034 4.99461
ltoes 3.45926
89
root -2.10992 16.4424 -24.2593 1.84063 5.44254 -0.254907
lowerback 13.4949 0.688318 -4.92563
upperback -4.81047 0.232656 1.8933
thorax -12.9981 0.621878 4.84078
lowerneck -8.67893 -7.34201 -4.82904
upperneck 17.969 -10.1489 4.26978
head 7.41093 -4.82649 1.23829
rclavicle -3.10601e-016 -1.15295e-014
rhumerus -33.9038 1.16728 -84.9974
rradius 30.5108
rwrist 5.13954
rhand -9.08353 17.6737
rfingers 7.12502
rthumb 16.866 -11.6139
lclavicle -3.10601e-016 -1.15295e-014
lhumerus -40.5274 8.43087 83.6155
lradius 21.5766
lwrist -1.52137
lhand -5.61101 16.4756
lfingers 7.12502
lthumb 20.2063 45.4447
rfemur 1.29481 16.7038 28.1626
rtibia 18.7057
rfoot -19.6493 -13.4787
rtoes 29.8295
lfemur -34.7529 -11.0425 -16.4523
ltibia 39.7657
lfoot -6.95276 5.3503
ltoes 1.75328
90
root -2.10416 16.4557 -24.1779 2.16365 5.21397 -0.344256
lowerback 13.2257 0.782488 -4.8644
upperback -4.82885 0.381138 1.87056
thorax -12.8727 0.681516 4.74086
lowerneck -8.66984 -7.32851 -4.70299
upperneck 17.7526 -10.1467 4.31477
head 7.33413 -4.81621 1.23674
rclavicle -1.04735e-014 -2.08724e-014
rhumerus -33.6286 1.36008 -85.1677
rradius 30.4022
rwrist 5.10386
rhand -9.82715 19.1819
rfingers 7.12502
rthumb 16.1501 -10.1653
lclavicle -1.04735e-014 -2.08724e-014
lhumerus -40.4685 8.83002 83.3156
lradius 21.3425
lwrist -2.17556
lhand -5.22364 16.7906
lfingers 7.12502
lthumb 20.5785 45.7198
rfemur 2.00743 16.6322 28.1553
rtibia 17.253
rfoot -19.1889 -13.2647
rtoes 29.5831
lfemur -34.9971 -12.1149 -15.6885
ltibia 37.6571
lfoot -6.95385 5.97975
ltoes 1.31409
91
root -2.09175 16.4627 -24.0766 2.29363 5.50293 -0.391325
lowerback 13.0692 0.711246 -4.8097
upperback -4.84663 0.303197 1.87844
thorax -12.7871 0.638399 4.73545
lowerneck -8.54679 -7.33024 -4.4515
upperneck 17.4923 -10.141 4.11853
head 7.20325 -4.81991 1.14432
rclavicle -1.68718e-014 1.61016e-014
rhumerus -33.6871 1.57115 -85.2754
rradius 30.2497
rwrist 5.60438
rhand -10.7994 20.359
rfingers 7.12502
rthumb 15.2138 -9.06158
lclavicle -1.68718e-014 1.61016e-014
lhumerus -40.5897 9.13758 83.1522
lradius 21.1298
lwrist -2.6432
lhand -4.86827 17.5402
lfingers 7.12502
lthumb 20.92 46.4321
rfemur 3.09314 16.4358 28.2917
rtibia 15.8075
rfoot -18.8999 -13.5158
rtoes 29.0951
lfemur -35.0698 -13.9514 -14.9014
ltibia 35.6579
lfoot -7.1795 6.93514
ltoes 0.127264
92
root -2.08013 16.4552 -23.9481 2.01073 6.76778 -0.344882
lowerback 13.1133 0.293766 -4.7803
upperback -4.8045 -0.253665 1.90217
thorax -12.6949 0.371048 4.87753
lowerneck -8.2216 -7.35104 -4.46406
upperneck 17.3168 -10.1627 4.07792
head 7.08859 -4.84315 1.14685
rclavicle 5.76476e-015 9.54166e-015
rhumerus -34.0113 1.99156 -85.446
rradius 29.764
rwrist 6.80355
rhand -12.3038 21.0887
rfingers 7.12502
rthumb 13.7642 -8.43596
lclavicle 5.76476e-015 9.54166e-015
lhumerus -40.9398 9.13388 83.1806
lradius 21.1157
lwrist -2.59526
lhand -4.54377 18.4877
lfingers 7.12502
lthumb 21.2317 47.3449
rfemur 4.97947 16.0932 28.7756
rtibia 14.281
rfoot -19.1408 -14.6645
rtoes 28.0194
lfemur -34.8542 -16.6593 -14.2602
ltibia 33.8224
lfoot -7.59386 7.82768
ltoes -0.492008
93
root -2.06952 16.4657 -23.8595 2.33244 5.99801 -0.564615
lowerback 12.8834 0.568682 -4.73502
upperback -4.94271 0.142005 1.96208
thorax -12.7647 0.562436 4.82355
lowerneck -8.22427 -7.39885 -4.51131
upperneck 17.3669 -10.2307 4.11314
head 7.11293 -4.87508 1.15779
rclavicle 6.59717e-015 -5.96354e-016
rhumerus -34.0243 2.0864 -85.5537
rradius 29.2112
rwrist 8.23086
rhand -13.978 22.2879
rfingers 7.12502
rthumb 12.1503 -7.33924
lclavicle 6.59717e-015 -5.96354e-016
lhumerus -41.0709 9.28964 83.1072
lradius 21.0287
lwrist -2.6659
lhand -4.41988 18.8889
lfingers 7.12502
lthumb 21.3507 47.7327
rfemur 5.79864 16.1623 28.7991
rtibia 12.5632
rfoot -18.1736 -14.265
rtoes 26.8839
lfemur -35.1899 -17.9021 -13.032
ltibia 32.2463
lfoot -8.11651 9.53302
ltoes -0.213343
94
root -2.05551 16.4711 -23.7678 2.57399 5.46651 -0.659399
lowerback 12.8674 0.738369 -4.80743
upperback -5.11857 0.367656 2.04878
thorax -12.9907 0.691192 4.91138
lowerneck -8.25086 -7.34645 -4.70509
upperneck 17.5463 -10.1473 4.16336
head 7.18506 -4.84041 1.20835
rclavicle 9.56651e-016 -1.05356e-014
rhumerus -34.0581 2.42443 -85.6357
rradius 29.0406
rwrist 8.822
rhand -14.4536 22.9058
rfingers 7.12502
rthumb 11.6917 -6.74792
lclavicle 9.56651e-016 -1.05356e-014
lhumerus -41.3537 9.61201 83.021
lradius 20.901
lwrist -2.85667
lhand -4.46712 18.951
lfingers 7.12502
lthumb 21.3053 47.7999
rfemur 6.84997 16.1131 28.7515
rtibia 10.7129
rfoot -17.2573 -13.9511
rtoes 25.5644
lfemur -35.5167 -19.2529 -11.9703
ltibia 30.9119
lfoot -8.48056 11.2751
ltoes 0.840393
95
root -2.03877 16.4711 -23.6654 2.59397 5.39341 -0.814369
lowerback 13.0275 0.749907 -4.70175
upperback -5.2395 0.402528 2.11297
thorax -13.233 0.713123 4.91885
lowerneck -8.32823 -7.25652 -4.78162
upperneck 17.7563 -10.0217 4.17274
head 7.26552 -4.78038 1.22966
rclavicle -5.64051e-015 1.19271e-014
rhumerus -34.2492 2.93875 -85.7966
rradius 29.1747
rwrist 8.36851
rhand -13.3084 22.3402
rfingers 7.12502
rthumb 12.7959 -7.2476
lclavicle -5.64051e-015 1.19271e-014
lhumerus -41.6814 9.93553 82.8452
lradius 20.6874
lwrist -3.08698
lhand -4.55419 18.9974
lfingers 7.12502
lthumb 21.2217 47.8557
rfemur 8.19714 15.9477 28.9413
rtibia 8.89679
rfoot -16.5751 -13.9704
rtoes 24.5923
lfemur -35.7746 -20.8503 -10.9195
ltibia 29.815
lfoot -9.00341 12.8276
ltoes 2.22507
